<?xml version="1.0" encoding="UTF-8"?><svg xmlns="http://www.w3.org/2000/svg" width="598.7095" height="451" viewBox="0 0 598.7095 451"><defs><style>.d{fill:#fff;}</style></defs><g id="a"/><g id="b"><g id="c"><path class="d" d="M266.7936,83.0821l-.5508,.2015c-.4315-.3415-.8545-.7033-1.2959-1.0211-2.0489-1.4751-2.6045-4.502-3.5445-7.089-1.4058-3.8691-2.8758-7.7223-3.9571-11.8044-1.5428-5.8242-3.1215-11.5634-5.8474-16.4583-.9229-1.6573-1.7394-3.436-2.5724-5.1907-1.9462-4.0998-4.7206-6.6836-8.1563-7.9933-2.0356-.776-4.1675-.8288-6.176,.7582-.7906,.6247-1.6558,1.8076-1.9355,2.9354-1.0549,4.2528-1.0867,8.4443,.971,11.7907,3.0546,4.9678,6.2762,9.7324,9.3782,14.6436,.8022,1.2701,1.5436,2.669,2.0977,4.1798,.6574,1.7927,.1398,2.7842-1.35,2.7938-1.7217,.011-3.4314-.1715-5.1534-.1508-1.6272,.0196-2.7056,1.3791-3.4786,3.3402-.7352,1.8653-1.0873,3.6304-.0456,5.3428,.7062,1.1608,1.1225,2.736,1.9432,3.682,3.6147,4.1665,7.1135,8.602,11.0617,12.1271,4.9909,4.4561,9.5719,9.4351,13.2975,15.7842,1.3396,2.2829,2.8378,4.7392,3.3613,7.544,1.2219,6.547,1.3029,13.438,.8298,20.436-.3042,4.4998-.2453,9.0264-.107,13.4961,.2401,7.7567,2.2646,14.7478,4.0617,21.7707,3.3859,13.2322,7.0616,26.2902,10.521,39.4791,1.6334,6.2273,2.905,12.678,4.5927,18.869,2.1325,7.8224,4.5647,15.4554,6.7837,23.2248,1.1773,4.122,2.2404,8.325,3.2084,12.5718,.2167,.9505,.0822,2.5658-.3799,3.2648-.3594,.5438-1.6166,.4866-2.2298,.0776-1.0136-.6761-2.0801-1.6023-2.6865-2.8582-2.8822-5.9689-6.1187-11.7144-8.296-18.2277-4.1829-12.5131-8.5763-24.8243-13.5073-36.7301-3.0555-7.3774-6.2499-14.6443-10.426-20.8153-2.8091-4.151-4.8292-8.856-5.7071-14.4231-1.1616-7.3662-1.8204-14.9191-1.7095-22.6668,.0598-4.1763,.1308-8.392-.1922-12.4827-.4523-5.7278-2.2643-10.239-6.5436-11.8718-1.8393-.7018-4.12,.4957-4.7241,2.7884-.5153,1.9555-.9875,4.0784-.9812,6.0613,.0233,7.4154,.2661,14.8013,.3848,22.2048,.0166,1.0374-.1098,2.1372-.327,3.1628-.4074,1.9236-1.2545,2.3309-2.1811,1.0275-.5668-.7973-1.0371-1.7734-1.4108-2.7813-3.6252-9.7765-7.2403-19.5614-10.8189-29.375-3.1159-8.5447-7.178-15.9817-12.5518-21.9481-1.6193-1.7979-3.3893-3.0213-5.5715-3.1276-1.7898-.0871-2.8418,.9755-3.3522,3.44-.644,3.1095-.6311,6.1356,.31,8.9053,.8252,2.4285,1.8011,4.7447,2.7198,7.1027,2.2314,5.7276,4.4767,11.4436,6.6902,17.1859,.234,.6071,.3184,1.3478,.4304,2.0443,.366,2.2771-.4594,3.4638-2.0675,2.7437-1.5425-.6907-3.0144-1.6527-4.4643-2.6286-4.4352-2.9855-9.1601-4.2807-14.3169-3.0918-2.7374,.6311-4.1812,3.758-3.4249,7.2801,.6602,3.0747,1.917,5.5002,3.7997,7.2941,.9423,.8979,1.7635,2.0345,2.7354,2.8646,2.0993,1.7931,4.1596,3.735,6.4252,5.0961,2.1924,1.3171,4.6989,1.7565,6.9321,2.9807,4.8252,2.645,9.5583,5.5607,14.3394,8.3366,3.5211,2.0443,6.1848,5.3865,8.2284,9.78,1.0171,2.1866,2.0501,4.456,3.4066,6.2001,4.9299,6.3392,9.872,12.6796,15.0602,18.6118,3.5758,4.0887,6.6115,8.7598,9.2314,13.9974,1.1964,2.3918,2.2713,4.9453,3.1421,7.6131,.315,.9649,.1944,3-.3054,3.6061-.6085,.7379-1.9553,.9316-2.7584,.5781-2.9704-1.3071-5.9372-2.7032-8.7442-4.4888-8.3553-5.315-16.648-10.7957-24.933-16.2931-2.0264-1.3446-4.1301-1.8971-6.4489-1.4496-1.7394,.3357-2.8956,2.0132-2.557,4.3415,.3261,2.2425,.7497,4.7545,1.769,6.3472,2.0514,3.2055,4.5572,5.8367,6.8235,8.781,.3818,.4961,.748,1.4013,.6653,2.0654-.0634,.5092-.8092,1.119-1.3136,1.367-1.7625,.8662-3.5654,1.5268-5.328,2.3924-2.3553,1.1565-3.773,3.4648-4.2558,6.8533-.4033,2.8307,.0192,4.3191,1.9852,4.8421,2.6667,.7094,5.3968,1.2462,8.1431,1.3863,5.8521,.2986,11.7478,.1296,17.5967,.4582,6.2412,.3506,12.4082,1.2552,18.0724,4.6366,2.291,1.3677,4.4974,3.0785,6.9077,3.9863,6.8406,2.5762,12.1961,7.8616,16.3335,15.4587,2.7466,5.0433,5.7931,9.6376,9.3485,13.6032,6.4584,7.2036,13.6721,9.2615,22.0546,3.7977,2.6027-1.6965,5.1776-3.4906,7.7824-5.1793,3.7261-2.4156,7.0257-5.7308,10.1291-9.5352,1.4198-1.7405,2.9559-3.3181,4.5135-4.8087,3.1816-3.0449,6.7701-4.5313,10.3486-5.9893,5.6842-2.3159,11.3403-4.924,17.0745-6.7727,6.0288-1.9436,11.7755-4.602,16.9041-9.9464,1.7285-1.8013,3.1994-3.8783,3.4408-6.9516,.3484-4.4345-1.8106-7.627-5.4204-7.5696-3.9605,.063-7.8675,1.0697-11.4978,4.1302-.9335,.7871-1.9249,1.4514-2.9234,2.0365-.3263,.1912-.9613,.1461-1.0926-.1381-.1646-.3564-.0535-1.1261,.118-1.6146,.186-.5297,.5376-1.0185,.8874-1.3911,2.0209-2.1527,3.9389-4.6055,6.1206-6.3282,6.3446-5.0099,12.0132-11.2403,17.1173-18.4888,2.1945-3.1165,4.0315-6.7086,6.0846-10.0226,3.0693-4.9544,6.258-9.7747,9.2591-14.8029,2.259-3.7848,3.7002-8.0276,3.4598-12.9088-.1239-2.5155-1.0073-4.0663-2.6796-4.8119-1.6511-.7362-3.0949-.0867-4.3899,1.6937-.6768,.9304-1.3991,1.8072-2.0231,2.7996-6.5507,10.4191-13.0831,20.8597-19.6279,31.2857-.887,1.4131-1.7911,2.8105-2.7397,4.144-.2341,.3291-.8463,.6549-.9812,.4973-.2569-.3001-.4806-.9979-.392-1.4459,.3713-1.8782,.6081-3.9315,1.3553-5.5477,3.229-6.9844,6.5958-13.8587,9.9599-20.7319,2.972-6.0721,6.0502-12.0526,8.9919-18.15,1.1317-2.3456,1.6479-4.9854,1.4337-7.724-.1503-1.922-.3004-3.9049-1.7825-4.6573-1.6552-.8403-3.2076-.0772-4.5696,1.6331-1.1883,1.4921-2.4066,2.9681-3.4637,4.6278-2.2215,3.4878-4.3254,7.1156-6.5313,10.6227-.3465,.5509-1.0471,1.1401-1.4519,1.0366-.383-.0979-.7237-1.0204-.8515-1.6915-.2971-1.5611-.355-3.2423-.6896-4.7795-.7207-3.311-2.9046-4.1308-5.1014-1.9973-2.9199,2.8356-4.121,6.843-4.4633,11.3732-.2011,2.6618-.3977,5.3328-.4486,7.9864-.1269,6.6041-.566,13.1331-2.1987,19.6298-3.4115,13.574-8.9984,24.9711-17.5478,33.8042-2.939,3.0365-5.5664,6.7558-8.1391,10.427-2.0539,2.9309-3.7754,6.3006-5.7057,9.4045-1.9563,3.1456-3.7966,6.5321-6.7487,8.024-1.5383,.7774-3.1555,1.658-4.5013,.09-1.3932-1.6231-1.0219-3.9802-.6303-6.2597,.0451-.2625,.1157-.5206,.1836-.7771,1.4258-5.3884,2.7774-10.8091,4.3006-16.155,1.576-5.5313,2.9791-11.2598,5.7927-15.9849,3.2589-5.473,5.5146-11.6218,8.0211-17.6707,4.5052-10.8724,9.2741-21.586,14.2995-32.0555,5.01-10.4374,11.2516-19.5105,18.2964-27.4708,3.6898-4.1694,7.5122-8.1128,11.125-12.4079,5.6268-6.6895,11.1127-13.6133,16.6841-20.3962,3.915-4.7663,7.9262-9.3797,11.7914-14.2224,2.351-2.9456,3.9695-6.5589,4.6597-10.8444,.4927-3.0596,.1956-4.9027-1.2922-6.2387-1.5477-1.3898-3.0605-.7708-4.5386,.7781-6.8685,7.1974-12.8909,15.5949-18.3278,24.8371-.8164,1.3878-1.7494,2.6865-2.7376,3.8409-1.165,1.361-2.1373,.9219-2.4276-.9933-.2023-1.3345-.241-2.7359-.442-4.071-.306-2.0329-.5664-4.1092-1.071-6.0298-.6119-2.3293-2.4432-2.723-3.641-.6578-1.0978,1.8928-2.2063,4.0977-2.6279,6.3301-1.5952,8.4458-3.7559,16.4111-8.7083,22.6709-.7708,.9744-1.3639,2.2187-2.0714,3.2985-.3667,.5596-.7676,1.1141-1.2159,1.5295-1.749,1.621-3.0792,.7323-3.0265-2.086,.0944-5.0502,.7112-10.0404,2.765-14.5787,5.216-11.526,9.8827-23.5235,16.371-33.9705,2.7743-4.467,5.0094-9.2937,6.252-14.9099,.8146-3.6821,.6695-7.0045-.5028-10.1522-1.2914-3.4676-5.3559-4.6851-7.8614-2.275-2.4721,2.378-4.3497,5.5261-4.9285,9.5572-.7655,5.3319-2.6083,9.9865-4.8856,14.4236-.3789,.7384-1.1202,1.1438-1.694,1.7031-.1551-.8029-.4439-1.5895-.4418-2.4115,.0081-3.1762,.307-6.411,.1224-9.5346-.2059-3.4843-2.6429-4.3872-4.6663-1.9795-.3038,.3615-.6287,.7216-.8625,1.1607-3.4873,6.5513-6.1369,13.559-7.1392,21.4402-.3707,2.9146-.6604,5.8399-1.0651,8.7492-.9396,6.7558-1.9484,13.5016-2.885,20.2578-.4586,3.3082-.5832,6.6987-1.2716,9.9323-1.5399,7.2331-3.2415,14.4277-5.066,21.5669-1.2143,4.7515-2.8742,9.3345-4.1027,14.0818-.7214,2.7875-2.0256,4.7039-3.6554,6.3695-.8774,.8968-1.78,.8487-2.4261-.2622-.4552-.7826-.9621-1.6294-1.1361-2.5912-.6243-3.4516-1.5022-6.8976-1.5895-10.466-.3054-12.4777-.4246-25.0009,1.0315-37.6183,.5587-4.841,.9697-9.7311,1.8695-14.4969,1.8332-9.7095,5.9398-18.0167,10.4172-25.975,2.759-4.904,5.6409-9.6934,8.6046-14.3719,2.8448-4.4907,5.0192-9.4598,6.9511-14.698,3.026-8.2048,6.1901-16.3251,9.2588-24.5042,1.029-2.7428,2.1074-5.4914,2.8694-8.3543,.8377-3.1471,.0218-6.6997-1.523-8.1717-1.5719-1.4977-3.2989-1.071-5.7512,1.181-3.8953,3.577-6.5197,8.5373-8.6042,14.1437-3.9343,10.5814-7.8971,21.1452-11.8254,31.7302-1.2306,3.3161-3.0509,5.8141-5.3515,7.6605-1.5378,1.2342-2.7752,.6841-3.2699-1.5147-.3027-1.3453-.5995-2.7936-.5456-4.2147,.1814-4.7812,.4562-9.5721,.8172-14.3571,.4264-5.652,1.1372-11.3056,1.4393-16.9516,.4055-7.5792,.5476-15.1524,.7829-22.7269,.1189-3.8267-.6958-7.0928-2.5931-9.6867-.9994-1.3663-2.4197-1.4837-3.4152,.0716-1.5582,2.4345-3.1346,4.9089-4.4066,7.6116-2.3138,4.9164-2.358,10.342-2.6214,15.7798-.3568,7.3654-.992,14.7517-1.7338,22.1137-.3409,3.3834-1.7128,4.0169-3.4339,1.7754-.9849-1.2826-1.8032-2.8709-2.5027-4.4967-2.9879-6.9446-5.7848-14.0666-8.8887-20.8997-1.9672-4.3307-3.9833-8.7371-7.7827-10.6546-1.8009-.9089-3.3712-.376-4.8786,1.2589-1.5204,1.6489-2.4817,3.7877-2.0227,6.3731,.6449,3.6325,1.3117,7.2793,2.2386,10.7533,1.7142,6.4248,4.284,12.0084,8.3473,16.0064,4.3745,4.3042,7.527,10.1864,10.2876,16.4504,1.5446,3.5049,3.0356,7.2397,3.8209,11.2304,2.3777,12.0828,2.093,24.6489,.2696,37.3887-.8713,6.0877-2.2838,12.2582-2.3391,18.2699-.1104,11.9997-1.4252,24.0693-.8944,36.0329,.4141,9.3337,.4455,18.7198,1.9386,27.7907,.7373,4.4792,.9443,9.1879,1.399,13.7904,.4052,4.1016-.084,8.1281-1.1187,12.1809-2.267,8.8798-4.398,17.8111-6.7,26.677-.6895,2.6555-1.5873,5.3076-2.7113,7.6954-.9401,1.9974-2.5073,1.9806-3.5216,.2556-.5677-.9655-.9989-2.1434-1.3208-3.3324-.6354-2.3476-1.2489-4.7237-1.7022-7.1679-3.3176-17.8879-6.677-35.7578-9.8226-53.7242-.775-4.4265-1.2523-9.1699-1.0449-13.8012,.1634-3.6496,1.5085-7.3825,2.4689-11.0233,3.3682-12.7687,6.8915-25.4604,11.325-37.7435,1.8863-5.226,3.571-10.6173,3.318-16.4803-.1274-2.9524-1.6909-4.3192-3.7628-3.1753-1.6389,.9049-2.7802,2.4962-3.6539,4.6663-5.4907,13.6375-10.0469,27.8012-14.6611,41.9367-.9537,2.9217-2.0229,5.8234-3.2987,8.518-.5489,1.1593-1.8235,2.4925-2.6558,2.458-1.2986-.0539-1.1308-2.2475-1.2006-3.6758-.1697-3.4726-.2458-6.971-.2523-10.473-.0151-8.0742,.0614-16.1604,.0489-24.2349-.0132-8.5999-.041-17.1988-.1456-25.7856-.103-8.4555-.531-16.8743-.3938-25.3496,.0909-5.6135,.9801-11.2973,1.4114-16.9517,.3429-4.4966,.3393-8.9004-1.5284-12.673-1.8623-3.7617-4.4798-4.255-7.1643-.9331-1.0509,1.3004-1.8702,3.0518-2.6034,4.7411-.4138,.9534-.4115,2.2056-.6423,3.3104-1.7245,8.2559-2.9945,16.5098-2.0804,24.8748,.1583,1.4489-.1541,3.054-.2491,4.587Z"/><g><g><path class="d" d="M88.9617,374.8007c0,1.1263-.6256,3.5035-.3754,4.7548,.1249,1.0011,.1249,2.5025,.1249,4.1291,0,3.5032-.1249,8.0078-.1249,11.3861,0,3.253,.2502,7.0068,.2502,10.385,0,1.7516-.1252,3.5032-.2502,5.1299-.1252,.6256-.1252,1.6267-.1252,2.5025,0,5.6306,1.2512,14.8896,1.3765,19.2686,.3754,5.005,2.6274,13.6384,2.6274,16.5163-.2502,1.2512-1.6264,1.5014-3.5032,1.5014-1.7519,0-3.879-.2502-7.2572-.2502-1.0011,0-2.6274,.1249-4.2541,.1249-2.5025,0-4.8797-.3751-4.8797-2.5022,0-.2505,.1249-.5007,.1249-.7509,.1252-.7509,.8761-4.0039,.8761-6.8818,0-.8758,1.0007-5.0046,1.0007-6.2559-.2502-2.5025-1.0007-5.1302-1.0007-7.6327,0-1.2512,.5004-2.3772,.5004-3.5032,.3754-1.3765,.3754-2.6277,.3754-3.7537,0-2.8779,0-3.8787,.1249-6.7566,0-2.127-.1249-4.0039-.7506-8.1331-.3754-2.127-.3754-3.5032-.3754-4.8797,0-3.3783-.1252-4.5043-.2502-6.5064,0-2.252,.6256-5.1299,.6256-7.0068,0-1.0011-.3754-1.6267-.8758-1.6267-.5007,0-.6256-.3751-.8758-.3751-.1252,0-.3754,.3751-1.0011,1.6264-1.8769,2.3772-1.2512,3.7537-2.5025,7.5074-1.3765,3.6285-3.1281,7.3822-3.879,9.8847-.8758,2.5025-1.5014,4.3793-3.253,7.5071-1.3762,3.0032-2.8779,6.7566-3.7537,9.8847-1.0011,2.7527-4.1288,8.0078-4.6295,10.3853-.3751,2.3772-1.3762,6.8815-2.127,9.384,0,.1252-.1249,.2502-.1249,.3754-.7509,2.8779-1.6267,6.8818-3.5035,8.3832-1.0011,.8758-4.6295,1.3762-6.6316,1.3762-.5004,0-1.0007-.1249-1.2509-.1249-1.3765-.3754-3.0032-5.6306-4.1291-8.1331-1.3765-2.2523-2.7527-4.8797-3.5035-7.2569-1.0007-2.2523-1.7516-5.5056-3.6285-8.1331-1.6267-2.5025-1.3762-5.2551-3.8787-8.5082-2.6277-3.3783-2.6277-5.3804-4.7548-8.5085-2.0018-2.8776-3.7537-6.8815-5.5053-11.1359-1.2512-3.5032-4.2541-7.1317-5.2551-7.1317-.3754,.1249-.5004,.6256-.5004,1.6264,0,.8758,.1249,2.2523,.1249,3.7537,0,3.0029-.2502,4.5043-.2502,7.2569,0,2.1274,.5004,4.88,.5004,7.3825,0,1.3762,.3754,2.6274,.3754,5.3801,0,4.2541-.3754,10.385-.3754,13.6384,0,4.3793,.6256,9.1338,.6256,11.511,0,2.2523,1.2512,4.0039,1.5017,4.7548,.1249,.5004,.2502,1.0011,.2502,1.5014,0,1.0011-.3754,1.8769-1.5014,1.8769-.6256,0-5.005,.2502-5.6306,.2502-2.7527-.1249-3.8787-.2502-3.8787-2.127,0-.3754,0-.8758,.1249-1.5014,.1252-.7509,.5004-3.6285,.5004-4.6295,0-2.2523,.6256-7.0068,.6256-9.0089,0-2.7527,.8761-6.0057,.8761-11.3861,0-4.2541-1.0011-7.5071-1.0011-10.1349v-6.6313c0-2.5025,.6256-5.2551,.6256-8.1331,0-2.6274-.6256-7.6324-.6256-11.0107,0-1.2512-.2502-6.5064-.3754-8.8836,0-3.7537,.1252-5.8808,.1252-8.2583,0-1.0007,1.126-1.126,2.5025-1.126,2.7527,0,3.7534,0,6.2559,.1252,1.8769,0,4.1291-.1252,5.5053-.1252,.8761,0,1.3765,.1252,1.6267,.2502,1.2512,.3754,1.3765,2.6277,2.0021,5.5053,1.0007,2.753,5.5053,7.8829,6.7566,10.7608,1.2512,3.0029,3.0029,5.6303,4.6295,7.7573,1.3762,2.3775,2.3772,6.006,3.3783,8.3832,.7506,1.8769,3.0029,6.3811,4.8797,8.6334,1.6267,2.3772,3.8787,5.7555,3.8787,8.7587,0,2.6274,3.6285,4.7545,3.6285,7.3822,.5007,1.0007,1.1263,1.6264,1.7519,1.6264,.5004,0,1.2512-.3751,1.7516-1.7516,1.6267-3.1281,1.5014-4.1291,4.6295-10.5103,3.253-6.6313,2.7527-6.2559,4.8797-10.5103,2.0021-3.7534,3.3783-7.8826,4.3793-11.1359,.7509-3.253,1.6267-5.7555,3.1281-8.1327,1.2512-2.3772,2.127-7.2572,3.1281-11.2611,1.126-4.2541,3.3783-5.5053,6.0057-5.8805,.7509-.1252,1.5014-.1252,2.2523-.1252,2.5025,0,4.8797,.7509,8.8836,.7509,1.7516,0,3.3783,.1249,3.3783,2.127,0,2.127-1.126,2.8776-1.126,5.0046Z"/><path class="d" d="M139.387,365.5417c2.8779,0,7.8829,.7509,10.5103,1.2512,3.0029,.7509,6.7566,2.7527,10.8857,4.5046,4.1288,2.0018,5.7555,6.1309,8.7584,8.3829,3.0032,1.7519,4.6295,10.7608,5.2551,14.7647,0,.1249,.1252,.3751,.1252,.5004,.2502,1.2512,1.0011,5.3801,1.0011,7.7576,0,5.005-1.0011,11.2608-1.7519,16.1406-1.2512,7.6327-3.1281,8.3832-4.1288,11.1359-1.1263,2.5025-1.8769,6.1309-3.7537,7.5074-1.5014,1.3762-3.2533,4.2541-5.8808,6.3811-2.6277,2.2523-6.2562,4.1291-8.7587,4.5043-2.3772,.5007-4.379,1.7519-10.51,1.7519-7.8829,0-14.0138-1.0011-17.8925-3.0029-3.7537-1.8769-9.259-6.006-11.5113-7.8829-2.0021-1.8769-5.5053-6.8818-7.8826-11.7615-2.1274-4.5043-2.8779-11.7612-4.0039-16.516-.1252-.6256-.1252-1.2512-.1252-2.2523,0-5.2551,2.0018-13.3879,3.7537-18.2676,2.0018-5.3804,8.0078-12.5124,12.1366-15.7654,1.6267-1.3765,4.3793-3.5035,6.5064-3.5035,1.0011-.6256,2.8779-2.0018,6.1309-3.3783,3.3783-1.126,7.2572-1.7516,9.5095-2.127,.5004-.1252,.8758-.1252,1.6264-.1252Zm-13.6384,11.011l-2.8776,8.0078c-1.2512,2.7527-.5007,7.6324-1.126,14.2637-.2505,3.879-.5007,8.1331-.5007,12.137,0,2.7527,.1252,5.005,.2502,7.2569,.3754,5.6306,1.2512,8.2583,2.6277,12.0117,1.5014,3.879,1.3762,6.8818,3.3783,9.259,2.7527,3.7537,9.5092,5.005,14.7644,5.005h.5004c1.8769,0,3.5035-.2502,4.6295-1.0011,2.5025-1.3762,9.0089-2.8776,11.7615-5.8808,2.6277-2.8776,5.6306-6.3811,6.6313-12.2619,1.0011-6.1309,3.3786-13.3879,3.3786-18.8932,0-3.7537-1.2512-4.1291-1.2512-7.0071,0-.8758,.1249-4.1288,.1249-6.3811,0-1.3762,0-2.2523-.1249-2.7527-.6256-2.6277-2.6277-6.2562-4.2544-8.7587-1.2512-1.5014-3.253-2.127-3.5032-2.5022-.3754-.5007-1.3765-2.753-3.2533-4.1291-2.252-1.5014-5.5053-2.3772-7.6324-3.0029-1.7516-.5007-6.6313-1.3765-8.5082-1.3765-2.3775,0-4.5046,.3754-5.3804,1.126-1.6267,1.3765-8.7584,2.5025-9.6345,4.88Z"/><path class="d" d="M234.7295,369.0452c0,1.8769-1.5014,6.2562-3.0029,6.2562-2.5025,0-4.0039-1.8769-7.6327-2.127-2.6274-.1252-4.1288-.5007-5.7555-.5007-.6256,0-1.5014,0-2.0018,.2502-1.5014,.3754-2.0021,1.8769-2.0021,4.3793,0,.5007,.1252,1.2512,.1252,1.8769v11.2611c0,1.7516,0,3.5032,.1249,4.7545,.2505,4.6295,.3754,11.7615,.3754,17.7672s.3754,11.1359,1.2512,15.1398c.2502,1.6267,.3754,2.7527,.3754,3.879,0,2.3772-.5007,3.8787-.5007,6.0057,.2505,4.3793,1.7519,6.1309,2.0021,8.258,0,.3754,.1252,.7509,.1252,1.0011,0,2.0021-1.2512,2.2523-2.7527,2.2523h-2.1274c-1.8769-.2502-2.7527-.3754-5.0046-.3754-.8758,0-1.6267,0-2.2523,.1252-1.3765,.2502-5.005,.8758-7.8826,.8758-2.3775,0-4.0039-.6256-4.0039-2.8779,0-2.127,2.0018-8.0078,2.3772-11.6363,.1249-1.3765,.1249-2.7527,.1249-11.0107,0-3.7537-.2502-9.5092-.2502-14.0138,0-1.5014,0-2.8776,.1252-6.3811,0-3.2533-.1252-5.5053-.2502-10.0099,0-1.7516,.1249-3.1278,.1249-4.7545,0-.7509,0-1.5014-.1249-2.5025-.1252-1.7516-.1252-3.7537-.1252-5.6306s0-3.5032-.2502-4.3793c-.3754-1.7516-1.5014-3.7534-4.1291-3.7534-1.2512,0-4.2541,1.126-6.6313,1.126s-4.3793,.7509-5.3804,.7509c-.2502,.1249-.8758,.1249-1.6264,.1249h-2.2523c-.6256,0-1.126-.3754-1.126-1.6267,0-.7506,.3751-2.127,1.126-4.0039,.7506-1.7516,1.7516-2.6274,3.0029-2.6274,.2502,0,.3754,.1252,.6256,.1252,.6256,.1249,4.7548,1.5014,6.7566,1.5014,1.2512,0,3.0029-.1252,4.5046-.2505,1.0007-.2502,1.8766-.2502,2.7527-.2502,2.6274,0,5.2551,.3754,7.6324,.3754,3.5032,0,8.5082-.7506,13.1377-.7506,4.2541,0,6.006,0,8.5085,.6253,.3751,.1252,.8758,.1252,1.2509,.1252,2.1274,0,3.2533-1.3762,7.0071-1.5014,2.8776,0,3.5032,.3754,3.6285,2.127Z"/><path class="d" d="M305.1734,375.3014c-.6256,1.6264-.7509,5.5053-.7509,9.7594,0,4.1291,0,8.8836-.3754,13.6384,0,4.3793,.3754,9.259,.3754,13.6381,0,2.3775-.1249,4.5046-.6256,6.3814-1.2512,5.8808-2.3772,11.511-4.2541,15.6402-1.8769,4.2541-4.7548,6.1309-6.7566,9.0089-2.2523,2.7527-6.3811,4.7545-8.3832,5.5053-1.126,.2502-3.1281,.8758-7.3822,.8758-3.253,0-7.2569-.2502-13.1377-1.2512-6.006-.8758-10.2601-3.3783-13.2629-6.5064-4.1291-4.2541-5.7555-9.384-6.006-12.1366-.2502-1.5017-1.0007-2.5025-1.0007-6.8818,0-2.2523,.2502-4.5043,.2502-5.8808,0-1.0011-.5007-2.127-.5007-3.253,0-3.0032,.7509-6.2562,.7509-11.5113s-.6256-10.1349-.6256-13.8886c0-1.0011,.1252-1.7516,.1252-2.3772,.1249-1.6267,.1249-3.879,.1249-6.006,0-3.1281-2.252-7.3822-2.252-11.2608,0-1.0011,.7506-2.127,4.0039-2.127,3.7534,0,5.5053,.3754,8.1327,.3754,.8758,0,1.7516,0,3.5035-.1252,.8758-.1252,1.7516-.1252,2.5025-.1252,1.3762,0,2.3772,.2505,2.3772,1.5014,0,3.0032-1.8769,6.3814-1.8769,7.2572,0,1.0011,.1252,2.127,.1252,3.5035,0,.7506,0,1.6264-.2505,2.3772-.3751,1.0011-.3751,1.8769-.3751,3.0029,0,3.0029,.7506,6.6316,1.3762,11.6363,.2502,2.3775,.2502,4.0039,.2502,5.1302,0,1.8769-.1249,3.1278-.1249,5.0046,0,4.5046-.1252,7.3822-.1252,9.8847,0,1.1263,0,2.5025,.1252,3.7537v4.8797c.1249,6.006,2.3772,10.5103,2.8776,11.8868,.8761,1.6264,2.2523,2.0018,3.5035,3.5032,1.2512,1.6267,3.1281,1.2512,5.2551,1.3765,2.2523,.1249,3.5035,1.6267,6.0057,1.8769,2.1274,0,5.8808-1.3765,8.5085-2.6277,3.0029-1.2512,4.2541-4.3793,6.6313-7.5071,2.2523-3.1281,3.3783-8.1331,3.879-12.8878,.5004-4.1288,1.126-7.7573,1.126-12.3868,0-3.5035-.2502-15.1398-.5004-18.8935-.5007-3.7537-.5007-7.6324-.5007-9.7594,0-1.8769-1.6264-7.3822-1.6264-11.3861,0-.7509,.5004-1.0011,1.2512-1.0011,1.126,0,2.6274,.3754,3.7534,.3754,1.0011,0,2.127-.2502,3.1281-.2502s1.7519,.2502,1.7519,1.7516c0,.1249-1.0011,6.3811-1.0011,6.5064Z"/></g><g><path class="d" d="M399.2637,449.4986c-.8758-.2502-3.0029-.3754-5.6306-.3754-2.127,0-4.6295,.1252-7.1317,.1252-2.8779,.1249-4.1291,.1249-5.2551,.1249-.8761,0-1.5014,0-3.879-.1249-2.8776,0-7.5071,.6256-10.2598,.6256-2.0021-.2502-3.3783-.6256-3.3783-3.0029,0-2.5025,1.6264-3.2533,1.7516-4.0039,.1249-.8761,.8758-3.879,1.0011-8.5085,0-2.7527-.1252-6.6313-.1252-9.8847,0-3.8787-.3754-8.5082-.3754-11.8865,0-2.8779-.2502-5.5053-.2502-8.3832,.1252-2.2523,1.0011-4.7545,1.126-8.6334,0-2.5025-1.0007-4.5043-1.126-9.0089,0-3.253-.1252-7.7573-.1252-10.2598,0-.8758-1.5014-5.005-1.5014-5.2551-.1249-.6256-.2502-1.2512-.2502-1.7519,0-2.0018,1.5014-2.252,4.5046-2.252h3.3783c1.0007,0,1.7516,0,4.379-.2502,1.7519-.1252,3.6288-.6256,5.2551-.6256,2.127,0,3.6285,.8758,3.6285,4.5043,0,.7506-.6253,3.6285-.6253,6.2562,0,5.1299-1.3765,8.6334-1.3765,13.8886,0,5.3801,1.0011,6.3811,1.0011,10.6352,0,4.5043-.7509,7.132-.7509,13.0128,.1252,2.0018,.1252,4.7545,.1252,7.5071,0,5.5053-.1252,11.3861-.6256,12.6373-.1252,.6256-.1252,1.1263-.1252,1.7519,0,1.8769,.5007,3.8787,.6256,4.8797,.2502,1.5014,2.0021,3.1281,4.5046,3.8787,.7506,.1252,1.5014,.2502,2.3772,.2502,1.8769,0,4.0039-.3751,6.0057-.3751,2.6277,0,5.3804-1.0011,7.5071-1.0011,2.0021,0,3.5038-1.0011,6.3814-2.3772,.5004-.1252,.8761-.3754,1.3765-.3754,.7509,0,1.6264,.3754,2.1267,1.126,.1252,.3754,.2505,.5007,.2505,.7509,0,1.126-2.0021,2.127-3.2533,3.8787-1.7516,2.0021-3.0029,3.2533-5.2548,3.2533-2.6277,0-4.7548-.1252-6.006-.7509Z"/><path class="d" d="M487.2246,449.6238c-2.6277,0-9.5095,.1249-12.5124,.3751-1.7516,0-1.126-1.2512-2.0015-2.127-1.0014-.7506-1.7522-3.7537-1.7522-3.8787,0-.5007-.3751-1.6267-.3751-2.127,0-.8758-.3751-1.8769-1.2512-3.0029-.7509-.7509-3.1281-5.7558-3.1281-6.7569-.1252-.1249-.1252-.3751-.2499-.6253-1.0014-2.1274-2.8782-6.006-3.5038-6.1313-1.0007-.5004-4.7545-.5004-8.0078-.5004-2.252,0-4.0036-.3754-6.2562-.3754-.8755,0-1.5011,0-2.3772,.1252-.8755,.1249-3.0029,.6256-4.0036,.6256-3.5038,0-6.3814-.6256-7.0071-.6256-1.126,0-1.3765,1.126-2.3772,3.253-.7509,2.0021-1.3765,4.5046-2.6277,6.1309-1.0007,1.6267-.6256,4.3793-1.5011,6.2562-.501,.8758-1.126,3.3783-1.126,3.7537,0,.5004-.3757,3.6285-.3757,4.7545,0,.7509-2.1267,1.2512-4.3793,1.2512-.6256,0-1.126-.1249-1.6264-.1249h-2.753c-.8755,0-1.5011-.1252-1.5011-1.0011,0-.6256,.2499-1.2512,.6256-2.127,.6256-1.3765,3.378-5.7555,3.378-6.7566,1.0014-1.5014,2.2526-2.7527,3.2533-5.1299,1.126-2.753,3.5032-7.7576,3.5032-9.1341-.2499-1.0011-.8755-2.6274-.8755-4.1288,0-.1252,.1252-.2505,.1252-.5007,.5004-1.2512,.8755-1.8769,3.1275-2.7527,2.5025-.7506,1.627-4.8797,3.2533-7.2569,1.7516-2.3775,3.0029-7.132,4.1288-10.0099,1.2512-2.5025,3.2533-6.8815,4.1295-9.259,1.0007-2.5025,2.7524-6.8815,4.2541-9.6342,1.7516-3.2533,3.0029-4.7548,3.1281-7.5074,0-2.5025,3.6285-7.3822,5.6306-7.3822,1.8769,0,3.378,.5004,3.8784,2.3772,.7509,1.8769,1.0014,3.1281,1.8769,5.8808,.3757,3.0029,3.5038,7.2572,4.8797,10.7605,1.5017,3.6285,5.005,11.5113,5.7558,14.7644,.8761,3.2533,4.1288,6.7566,4.6298,9.6345,.5004,3.1281,3.1275,6.2562,4.7545,11.2608,1.5011,5.005,1.3765,3.6288,2.252,5.7558,1.0007,2.252,1.0007,4.1288,2.252,6.7566,1.1266,2.8776,2.5025,4.8797,3.0035,6.2559,.3751,1.2512,3.2527,4.5046,3.2527,6.8818,0,1.8769-1.0007,2.0021-3.5032,2.0021Zm-42.792-51.5504c-.3751,2.127-2.6271,6.8818-3.6285,9.259-1.3759,2.127-1.6264,4.2541-2.252,6.2562-.2505,.7506-2.1274,4.379-2.1274,5.2551,0,.3751,.1252,.5004,.3757,.5004,.8755-.3754,2.3772-.5004,4.1288-.5004,1.627,0,3.2533-.5007,4.2541-.5007,1.2512,0,2.5025,1.0011,4.0042,1.0011,2.252,0,4.8797-.1252,6.0057-.3754h4.2541c.3751,0,.6256,0,.6256-.1249,0-.2505-1.126-1.6267-1.5011-4.2544-.7509-2.5025-2.6277-4.7545-3.5038-7.2569-.6256-2.7527-3.0029-4.6295-3.7537-7.6324-.6256-3.2533-1.6264-5.6306-2.3772-7.7576-.3751-1.2512-.6256-2.0021-1.0007-2.0021-.1252,0-.2505,.2505-.5004,.6256-.2505,1.2512-2.3778,5.2551-3.0035,7.5074Z"/><path class="d" d="M564.1746,382.9336c0,3.1281-.8761,6.5064-.8761,10.7605,0,2.3772,.2505,4.6295,.2505,7.3822,0,3.2533-.2505,5.8808-.2505,8.5085,0,4.0039-.3751,7.8826-.3751,11.8865,0,1.0011,.1252,2.0021,.1252,3.0029,0,2.2523,.6256,7.0071,1.126,9.3843,0,2.127,0,4.3793-.1252,7.0068,.1252,.7509,.2505,2.2523,.2505,3.8787,0,1.8769-.1252,3.879-.6256,4.5046-.6256,1.0011-2.5025,1.7516-4.2541,1.7516-.5004,0-.8761-.1249-1.2512-.2502-2.0021-.8758-4.7551-7.132-7.1323-8.3832-2.1267-1.2512-4.2541-4.2541-6.5061-6.6313-2.5025-2.2523-5.6306-6.7566-9.6342-10.6355-2.1274-2.252-4.7551-3.6285-6.8818-6.5064-2.6277-3.1278-3.2533-5.2551-5.6306-7.8826-2.3772-2.5025-6.2562-6.3811-7.5074-8.1331-1.2512-1.6264-2.6277-4.5043-4.7545-7.0068-1.126-1.3762-3.0029-3.8787-4.0042-3.8787-.5004,0-.5004,.8758-.5004,1.6264v1.5017c-.1252,.8758-.2505,1.6264-.2505,2.3772,0,2.2523,.3757,4.5043,.501,6.6313,.1246,3.6288,.3751,5.5053,.3751,7.7576,0,.6256-.1252,1.3765-.1252,4.0039s.5004,5.005,.5004,8.6334c0,3.3783,.501,6.3811,.501,9.0089,0,.6256-.1252,3.6285-.1252,5.1299,.6256,4.1291,1.5011,5.8808,1.5011,8.3832,0,2.8779-1.3759,3.1281-3.378,3.1281h-3.879c-1.2512,0-2.6277-.1252-2.6277-1.2512v-1.7516c0-.2505,.1252-.7509,.1252-1.5017,0-.2502,.1252-.5004,.1252-1.126,.2505-.6256,.7509-5.8808,.7509-6.5064v-10.0096c0-2.5025,.1252-3.5035,.1252-4.3793,0-3.7537-.2505-7.6324-.2505-10.385,0-3.0032,0-4.88-.2505-8.3832,0-.5007-.1246-1.1263-.1246-2.0021,0-2.8776,.3751-7.0068,.3751-10.0096,0-5.6306-1.126-11.5113-1.5017-13.6384-.1246-1.5014-.5004-6.0057-.5004-8.7584,0-2.1274,.2505-2.8779,1.2512-3.0032h1.5017c.6256,0,1.3765,0,2.252-.1249,2.0021,0,3.879,.3754,5.6306,.7506,.1252,0,.2505,.2502,.3751,.2502,2.3778,.5007,2.753,2.6277,4.8797,5.3804,2.0021,2.8779,4.8803,5.7555,7.5074,9.259,2.6277,3.6285,6.2562,7.132,8.3835,9.259,2.1267,2.2523,4.8797,5.7555,6.7566,8.0078,1.8769,2.3772,6.6313,7.8826,9.5089,10.5103,3.0029,2.8776,4.3793,5.1299,6.8818,7.3822,2.252,2.3772,5.6306,7.2569,5.6306,7.2569,0,0,0-2.7527,.3751-5.6306,.1252-1.0007,.1252-1.8766,.1252-2.7527,0-1.8766,0-3.7534-.1252-6.5061-.2499-4.1291-.6256-5.5056-.6256-9.259,0-3.1281-.3751-6.3814-.3751-9.6345,0-6.8818-.6256-11.5113-.6256-13.8886,0-2.7527-1.8769-6.006-1.8769-8.3832,0-1.7516,.6256-2.0018,2.5025-2.0018,1.126,0,3.5032-.1252,5.005-.1252,2.7524,0,2.3772,1.3765,2.5025,2.3772,0,2.0021-.7509,7.7576-.7509,13.6384Z"/><path class="d" d="M596.7074,375.4265c0,1.126-.6256,2.252-.6256,3.5032,0,1.126,.1252,3.3783,.1252,4.8797,0,2.8779-.8761,6.8818-.8761,9.1341,0,3.1278,1.2512,8.1327,1.2512,10.8854,0,.3754-.1246,.6256-.1246,.8758-.3757,2.3775-1.0014,3.0032-1.0014,7.0071,0,5.0046,1.0014,10.7605,1.2512,15.5149,.2505,1.8769,.2505,3.3783,.2505,4.7548,0,2.5025-.2505,4.5043-.5004,7.3822-.1252,1.126-.1252,2.7527-.1252,3.8787,0,2.5025,.8755,4.5046,.8755,5.5053,0,.6256-.2499,.8761-1.2512,.8761-1.0007-.1252-2.252-.2505-3.6285-.2505-3.1281,0-6.7566,.3754-9.8847,.3754-2.5025,0-3.6285-.2502-6.2562-.2502-.1246,0-.2499-.3754-.2499-1.5014,0-1.7516,.8755-4.0039,1.0007-4.2541,1.0014-1.8769,1.5017-4.3793,1.5017-6.6316,0-1.2512-.1252-2.8776-.1252-10.7605-.1252-1.8769-.2505-4.2541-.2505-6.5064,0-1.126,0-2.127,.1252-3.0029,.6256-7.0068,.7509-12.137,.7509-16.0156,0-5.7555-.3751-8.7587-.3751-11.0107,0-3.7537-2.8782-19.1437-2.8782-21.7714,0-1.8766,6.1309-1.8766,6.6319-1.8766,3.378,0,7.2569,.8758,11.3858,.8758,.3751-.1252,2.0021-.2502,3.879-.2502,.6256,0,1.126,.1249,1.126,1.6264,0,2.3775-2.0021,4.7548-2.0021,7.0071Z"/></g></g></g></g></svg>