<?xml version="1.0" encoding="UTF-8"?><svg xmlns="http://www.w3.org/2000/svg" width="228.6726" height="315.242" viewBox="0 0 228.6726 315.242"><defs><style>.d{fill:#fff;}</style></defs><g id="a"/><g id="b"><g id="c"><path class="d" d="M79.7214,87.0849l-.5516,.2112c-.4322-.358-.8558-.7372-1.2979-1.0703-2.0521-1.5461-2.6085-4.7189-3.55-7.4306-1.408-4.0555-2.8802-8.0943-3.9632-12.3731-1.5452-6.1048-3.1264-12.1205-5.8565-17.2512-.9243-1.7371-1.7421-3.6015-2.5764-5.4408-1.9493-4.2973-4.7279-7.0056-8.169-8.3784-2.0388-.8134-4.174-.8688-6.1856,.7947-.7918,.6548-1.6583,1.8946-1.9385,3.0768-1.0566,4.4577-1.0884,8.8511,.9725,12.3588,3.0593,5.2072,6.2859,10.2013,9.3928,15.3491,.8035,1.3313,1.546,2.7976,2.1009,4.3812,.6584,1.879,.1401,2.9184-1.3521,2.9284-1.7243,.0115-3.4367-.1798-5.1614-.158-1.6297,.0206-2.7098,1.4455-3.484,3.5011-.7364,1.9552-1.0889,3.8053-.0456,5.6002,.7073,1.2168,1.1242,2.8678,1.9462,3.8594,3.6203,4.3672,7.1246,9.0164,11.0789,12.7114,4.9987,4.6708,9.5868,9.8896,13.3182,16.5447,1.3417,2.3929,2.8423,4.9675,3.3666,7.9075,1.2238,6.8625,1.3049,14.0854,.8311,21.4205-.3046,4.7165-.2457,9.4613-.1071,14.1463,.2405,8.1305,2.2681,15.4583,4.068,22.8196,3.3911,13.8697,7.0726,27.5568,10.5373,41.3812,1.6359,6.5273,2.9095,13.2888,4.5998,19.7781,2.1358,8.1993,4.5718,16.2001,6.7942,24.3438,1.1791,4.3206,2.2439,8.7261,3.2134,13.1775,.217,.9963,.0823,2.6894-.3804,3.4221-.3599,.57-1.6191,.5101-2.2333,.0814-1.0152-.7086-2.0834-1.6795-2.6907-2.9959-2.8867-6.2565-6.1282-12.2788-8.3089-19.1059-4.1894-13.116-8.5896-26.0203-13.5283-38.4997-3.0603-7.7328-6.2596-15.3499-10.4422-21.8182-2.8135-4.351-4.8367-9.2826-5.716-15.118-1.1634-7.7211-1.8233-15.6379-1.7122-23.7589,.0599-4.3775,.131-8.7963-.1925-13.0841-.453-6.0038-2.2678-10.7323-6.5538-12.4438-1.8422-.7356-4.1264,.5196-4.7315,2.9227-.5161,2.0497-.989,4.2749-.9828,6.3533,.0234,7.7727,.2665,15.5144,.3854,23.2746,.0167,1.0874-.11,2.2401-.3276,3.3152-.4081,2.0162-1.2564,2.4433-2.1845,1.077-.5677-.8357-1.0387-1.8588-1.413-2.9153-3.6309-10.2476-7.2516-20.5038-10.8358-30.7903-3.1207-8.9564-7.1891-16.7516-12.5713-23.0055-1.6219-1.8845-3.3946-3.1669-5.5802-3.2783-1.7926-.0913-2.8463,1.0225-3.3575,3.6058-.645,3.2593-.632,6.4312,.3105,9.3343,.8264,2.5455,1.8039,4.9733,2.724,7.4449,2.2348,6.0036,4.4836,11.995,6.7006,18.0139,.2344,.6364,.3189,1.4127,.431,2.1428,.3665,2.3868-.4601,3.6307-2.0707,2.8759-1.5449-.724-3.0191-1.7323-4.4712-2.7553-4.4421-3.1294-9.1743-4.487-14.3392-3.2407-2.7416,.6615-4.1877,3.939-3.4303,7.6308,.6613,3.2229,1.9199,5.7652,3.8056,7.6455,.9438,.9411,1.7662,2.1325,2.7396,3.0026,2.1025,1.8794,4.1661,3.915,6.4352,5.3416,2.1958,1.3806,4.7062,1.8412,6.9429,3.1243,4.8327,2.7724,9.5732,5.8286,14.3618,8.7383,3.5266,2.1428,6.1944,5.646,8.2412,10.2512,1.0187,2.292,2.0533,4.6706,3.4119,6.4989,4.9375,6.6446,9.8874,13.2905,15.0837,19.5085,3.5814,4.2857,6.6218,9.1819,9.2458,14.6718,1.1983,2.5071,2.2748,5.1836,3.147,7.9799,.3154,1.0114,.1947,3.1445-.3058,3.7799-.6094,.7735-1.9583,.9764-2.7627,.606-2.975-1.3701-5.9465-2.8335-8.7578-4.7051-8.3683-5.5711-16.6739-11.3158-24.9718-17.0781-2.0296-1.4093-4.1365-1.9886-6.4589-1.5194-1.7421,.3519-2.9001,2.1102-2.561,4.5506,.3266,2.3505,.7509,4.9836,1.7718,6.653,2.0546,3.3599,4.5643,6.118,6.8341,9.204,.3824,.52,.7491,1.4688,.6663,2.1649-.0635,.5337-.8104,1.1729-1.3157,1.4328-1.7653,.9079-3.5709,1.6004-5.3363,2.5076-2.359,1.2122-3.7789,3.6317-4.2624,7.1834-.4039,2.9671,.0192,4.5272,1.9883,5.0754,2.6708,.7436,5.4052,1.3062,8.1558,1.453,5.8613,.313,11.7661,.1359,17.6241,.4802,6.2509,.3675,12.4275,1.3157,18.1005,4.86,2.2946,1.4336,4.5044,3.2269,6.9185,4.1783,6.8512,2.7003,12.2151,8.2403,16.3589,16.2035,2.7508,5.2863,5.8021,10.1019,9.363,14.2585,6.4684,7.5506,13.6934,9.7077,22.0889,3.9806,2.6067-1.7782,5.1856-3.6588,7.7945-5.4289,3.7319-2.532,7.0366-6.0069,10.1449-9.9945,1.4221-1.8244,2.9605-3.4779,4.5205-5.0404,3.1866-3.1916,6.7807-4.7496,10.3647-6.2778,5.693-2.4275,11.358-5.1612,17.1011-7.099,6.0382-2.0372,11.7939-4.8237,16.9304-10.4256,1.7312-1.888,3.2043-4.0651,3.4462-7.2865,.3489-4.6482-1.8135-7.9944-5.4288-7.9343-3.9667,.066-7.8798,1.1213-11.5157,4.3292-.935,.825-1.9279,1.5213-2.928,2.1346-.3268,.2004-.9628,.1532-1.0943-.1448-.1648-.3735-.0536-1.1804,.1182-1.6924,.1863-.5552,.5385-1.0675,.8888-1.4581,2.024-2.2564,3.9451-4.8274,6.1301-6.6331,6.3544-5.2513,12.0319-11.7819,17.1439-19.3796,2.198-3.2667,4.0378-7.0318,6.0941-10.5055,3.0741-5.1931,6.2677-10.2456,9.2735-15.5161,2.2625-3.9671,3.7059-8.4143,3.4651-13.5307-.1241-2.6367-1.0089-4.2622-2.6837-5.0437-1.6537-.7717-3.0997-.0909-4.3967,1.7753-.6778,.9752-1.4013,1.8943-2.0262,2.9345-6.5609,10.9211-13.1035,21.8647-19.6585,32.7931-.8884,1.4811-1.7939,2.9459-2.7439,4.3436-.2344,.3449-.8476,.6864-.9827,.5212-.2573-.3146-.4813-1.0459-.3926-1.5155,.3719-1.9687,.609-4.1209,1.3574-5.815,3.234-7.3209,6.6061-14.5264,9.9755-21.7308,2.9766-6.3646,6.0597-12.6333,9.0059-19.0244,1.1334-2.4586,1.6504-5.2255,1.436-8.0962-.1505-2.0146-.3009-4.0931-1.7853-4.8817-1.6578-.8808-3.2126-.0809-4.5767,1.7118-1.1902,1.564-2.4104,3.1111-3.4691,4.8508-2.225,3.6558-4.3321,7.4584-6.5414,11.1345-.3471,.5774-1.0488,1.195-1.4542,1.0865-.3836-.1026-.7248-1.0695-.8528-1.773-.2976-1.6364-.3555-3.3985-.6906-5.0097-.7218-3.4706-2.9091-4.3298-5.1093-2.0935-2.9244,2.9722-4.1274,7.1727-4.4702,11.9212-.2014,2.79-.3983,5.5897-.4493,8.3711-.1271,6.9223-.5669,13.7658-2.2022,20.5755-3.4168,14.2279-9.0124,26.1742-17.5751,35.4329-2.9436,3.1828-5.5751,7.0813-8.1517,10.9293-2.0571,3.0721-3.7812,6.6042-5.7146,9.8576-1.9594,3.2972-3.8025,6.8468-6.7592,8.4106-1.5407,.8149-3.1604,1.7379-4.5083,.0943-1.3954-1.7013-1.0235-4.1719-.6313-6.5613,.0452-.2751,.1159-.5457,.1839-.8145,1.428-5.648,2.7817-11.3299,4.3073-16.9334,1.5785-5.7978,2.9837-11.8023,5.8017-16.755,3.264-5.7366,5.5232-12.1817,8.0336-18.5221,4.5122-11.3962,9.2885-22.626,14.3217-33.5999,5.0178-10.9403,11.2691-20.4505,18.3248-28.7943,3.6956-4.3703,7.5239-8.5037,11.1423-13.0057,5.6356-7.0118,11.13-14.2692,16.71-21.3789,3.9211-4.996,7.9385-9.8316,11.8098-14.9077,2.3547-3.0875,3.9757-6.8749,4.6669-11.3669,.4935-3.207,.1959-5.1389-1.2942-6.5393-1.5501-1.4568-3.0653-.8079-4.5457,.8156-6.8792,7.5442-12.911,16.3463-18.3563,26.0338-.8177,1.4546-1.7522,2.816-2.7418,4.0259-1.1668,1.4266-2.1406,.9663-2.4314-1.0411-.2026-1.3988-.2414-2.8677-.4427-4.2672-.3065-2.1308-.5673-4.3072-1.0726-6.3203-.6129-2.4415-2.447-2.8542-3.6466-.6895-1.0995,1.984-2.2097,4.2951-2.632,6.635-1.5977,8.8527-3.7618,17.2017-8.7218,23.7631-.772,1.0213-1.366,2.3256-2.0747,3.4574-.3673,.5866-.7688,1.1678-1.2178,1.6032-1.7517,1.6991-3.084,.7675-3.0312-2.1865,.0945-5.2935,.7123-10.5242,2.7693-15.281,5.2242-12.0813,9.898-24.6568,16.3965-35.6072,2.7786-4.6822,5.0172-9.7414,6.2617-15.6283,.8159-3.8595,.6706-7.342-.5035-10.6413-1.2934-3.6347-5.3642-4.9109-7.8737-2.3846-2.4759,2.4925-4.3565,5.7924-4.9362,10.0177-.7667,5.5887-2.6124,10.4676-4.8932,15.1185-.3795,.7739-1.1219,1.1989-1.6966,1.7851-.1554-.8416-.4445-1.6661-.4425-2.5277,.0081-3.3293,.3075-6.7199,.1225-9.9939-.2062-3.6522-2.647-4.5986-4.6735-2.0749-.3042,.3789-.6297,.7564-.8638,1.2166-3.4927,6.8669-6.1465,14.2123-7.1504,22.4732-.3712,3.055-.6615,6.1213-1.0667,9.1708-.941,7.0812-1.9514,14.1521-2.8895,21.2338-.4594,3.4676-.5841,7.0215-1.2736,10.4108-1.5423,7.5816-3.2466,15.1228-5.0738,22.606-1.2161,4.9805-2.8787,9.7843-4.1091,14.7603-.7225,2.9219-2.0288,4.9305-3.6611,6.6764-.8788,.94-1.7828,.8896-2.4299-.2748-.4559-.8203-.9636-1.7079-1.1378-2.716-.6253-3.6179-1.5045-7.2299-1.592-10.9702-.3059-13.0789-.4253-26.2055,1.0331-39.4307,.5596-5.0742,.9712-10.1999,1.8724-15.1953,1.836-10.1772,5.949-18.8847,10.4334-27.2265,2.7633-5.1402,5.6497-10.1604,8.618-15.0643,2.8492-4.7071,5.027-9.9156,6.9619-15.4062,3.0307-8.6001,6.1997-17.1116,9.2732-25.6848,1.0306-2.8749,2.1106-5.756,2.8739-8.7568,.839-3.2988,.0219-7.0225-1.5254-8.5654-1.5743-1.5698-3.3041-1.1225-5.7602,1.2379-3.9014,3.7493-6.5298,8.9486-8.6176,14.8251-3.9404,11.0912-7.9094,22.164-11.8438,33.259-1.2326,3.4758-3.0556,6.0943-5.3598,8.0296-1.5402,1.2937-2.7795,.7171-3.275-1.5877-.3031-1.4101-.6005-2.9282-.5465-4.4178,.1817-5.0115,.4569-10.0333,.8185-15.0488,.4271-5.9244,1.139-11.8503,1.4415-17.7683,.4061-7.9443,.5484-15.8825,.7841-23.8219,.1191-4.0111-.6969-7.4345-2.5971-10.1534-1.0009-1.4322-2.4234-1.5552-3.4205,.075-1.5606,2.5518-3.1395,5.1454-4.4134,7.9783-2.3174,5.1533-2.3616,10.8402-2.6255,16.54-.3574,7.7203-.9936,15.4624-1.7365,23.1791-.3414,3.5464-1.7154,4.2105-3.4392,1.861-.9864-1.3444-1.806-3.0092-2.5066-4.7133-2.9925-7.2792-5.7938-14.7444-8.9025-21.9066-1.9703-4.5394-3.9895-9.158-7.7949-11.168-1.8037-.9527-3.3764-.3941-4.8862,1.3196-1.5227,1.7283-2.4856,3.9701-2.0259,6.6801,.6459,3.8075,1.3137,7.63,2.2421,11.2714,1.7169,6.7343,4.2907,12.587,8.3603,16.7775,4.3813,4.5116,7.5387,10.6772,10.3036,17.243,1.547,3.6737,3.0403,7.5885,3.8268,11.7714,2.3814,12.6649,2.0962,25.8365,.27,39.19-.8727,6.381-2.2874,12.8488-2.3428,19.1501-.1105,12.5778-1.4275,25.229-.8958,37.7689,.4147,9.7834,.4462,19.6217,1.9416,29.1296,.7384,4.695,.9458,9.6306,1.4012,14.4548,.4058,4.2992-.0842,8.5197-1.1204,12.7677-2.2705,9.3076-4.4049,18.6693-6.7104,27.9623-.6906,2.7834-1.5898,5.5633-2.7155,8.0662-.9416,2.0936-2.5112,2.0761-3.5271,.2679-.5686-1.012-1.0005-2.2466-1.3228-3.4929-.6364-2.4607-1.2508-4.9513-1.7048-7.5133-3.3228-18.7498-6.6874-37.4805-9.8378-56.3126-.7762-4.6398-1.2542-9.6117-1.0465-14.4661,.1637-3.8254,1.5108-7.7382,2.4727-11.5544,3.3734-13.3838,6.9022-26.687,11.3426-39.5619,1.8892-5.4778,3.5765-11.1289,3.3231-17.2743-.1276-3.0946-1.6935-4.5273-3.7687-3.3283-1.6415,.9485-2.7845,2.6164-3.6596,4.8911-5.4993,14.2945-10.0625,29.1406-14.6839,43.9572-.9552,3.0625-2.0261,6.104-3.3038,8.9284-.5497,1.2152-1.8263,2.6126-2.6599,2.5764-1.3006-.0565-1.1326-2.3557-1.2025-3.8529-.17-3.6399-.2462-7.3069-.2527-10.9776-.0151-8.4632,.0615-16.9389,.049-25.4026-.0133-9.0142-.0411-18.0274-.1459-27.028-.1032-8.8629-.5318-17.6872-.3944-26.5709,.091-5.884,.9817-11.8416,1.4136-17.7684,.3435-4.7132,.3399-9.3292-1.5307-13.2835-1.8652-3.9429-4.4868-4.46-7.1755-.9781-1.0525,1.363-1.8731,3.1988-2.6075,4.9695-.4145,.9993-.4122,2.3119-.6433,3.4699-1.7272,8.6537-2.9991,17.3053-2.0837,26.0733,.1586,1.5187-.1543,3.2012-.2495,4.808Z"/></g></g></svg>