<?xml version="1.0" encoding="UTF-8"?><svg id="Layer_2" xmlns="http://www.w3.org/2000/svg" viewBox="0 0 205.75 165"><defs><style>.cls-1{fill:#0b8699;}</style></defs><g id="Layer_1-2"><path class="cls-1" d="M89.14,165c-7.17-4.28-14.42-8.78-21.51-13.5-2.12-1.41-4.13-3.53-6.1-5.57-3.95-4.09-8.07-6.77-12.48-7.66-5.98-1.22-11.98-2.61-17.95-3.67-2.77-.48-5.46,.01-8.22-.6-2.86-.62-5.76-1.98-8.64-3.15-1.33-.55-2.65-1.49-3.98-2.12-2.66-1.26-4.97-3.46-6.97-6.63-2.29-3.62-2.21-7.66,.26-9.43,4.63-3.34,9.92-3.74,15.64-2.16,1.88,.52,3.77,1.01,5.61,1.18,1.92,.17,2.23-1.47,.88-3.86-.42-.73-.83-1.52-1.32-2.1-4.72-5.53-9.44-11-14.16-16.5-1.95-2.26-3.93-4.45-5.81-6.84-2.15-2.7-3.48-6.06-4.18-9.77-.57-2.95,.02-4.54,1.84-5.14,2.24-.73,4.54-.06,6.94,1.3,7.96,4.54,15.26,11.21,22.09,19.5,7.84,9.52,15.71,18.98,23.58,28.44,.81,.97,1.71,1.87,2.62,2.54,1.49,1.08,2.16,.3,1.74-2-.24-1.23-.59-2.5-1.06-3.65-3.33-8.18-6.79-16.3-10.04-24.53-.87-2.2-1.32-4.76-1.65-7.13-.4-2.79,1.36-5.01,3.51-4.94,4.98,.14,8.76,4.45,11.7,10.63,2.1,4.43,3.86,9.15,5.62,13.81,3.26,8.66,7.2,16.8,11.56,24.54,3.25,5.75,7.22,10.14,11.75,13.63,0-9.4-.61-18.67-2.01-27.76-.93-6.01-2.69-11.62-4.51-16.89-3.26-9.41-6.98-18.25-12.13-24.71-4.8-6.01-7.83-14.4-9.84-24.06-1.1-5.22-1.89-10.7-2.64-16.15-.54-3.89,.58-7.11,2.38-9.58,1.78-2.46,3.62-3.25,5.76-1.89,4.47,2.88,6.85,9.5,9.17,16.01,3.66,10.26,6.96,20.97,10.48,31.41,.83,2.44,1.79,4.82,2.95,6.75,2.03,3.37,3.65,2.41,4.05-2.66,.88-11.07,1.62-22.17,2.05-33.24,.31-8.16,.36-16.32,3.09-23.71,1.5-4.07,3.36-7.78,5.19-11.43,1.18-2.35,2.85-2.17,4.03-.12,2.24,3.9,3.2,8.81,3.06,14.56-.27,11.38-.45,22.76-.92,34.15-.36,8.49-1.2,16.98-1.7,25.48-.42,7.18-.75,14.38-.96,21.58-.07,2.12,.28,4.3,.64,6.33,.59,3.3,2.04,4.13,3.86,2.27,2.71-2.77,4.86-6.53,6.31-11.51,4.63-15.91,9.3-31.78,13.94-47.69,2.46-8.41,5.56-15.87,10.15-21.25,2.89-3.38,4.92-4.02,6.78-1.77,1.83,2.21,2.79,7.56,1.8,12.27-.91,4.3-2.17,8.43-3.39,12.56-3.61,12.29-7.34,24.49-10.92,36.83-2.28,7.87-4.84,15.34-8.19,22.08-3.49,7.04-6.9,14.23-10.15,21.6-.98,2.22-1.94,4.45-2.88,6.72,2.72-1.99,5.31-4.39,7.75-7.3,5.41-6.47,10.52-13.39,15.1-20.89,2.46-4.04,4.94-8.14,7.68-11.9,3.83-5.26,8.07-8.64,12.65-7.95,1.97,.29,3.17,2.64,2.29,5.16-.75,2.15-1.63,4.44-2.83,6.34-4.49,7.12-9.15,14.09-13.71,21.14-.64,.99-1.2,2.11-1.63,3.22-.82,2.06-.35,2.9,1.21,2.14,.96-.48,1.94-1.17,2.86-1.93,8.94-7.5,17.87-14.99,26.8-22.54,7.76-6.58,15.66-11.58,23.77-14.49,2.44-.87,4.66-1.11,6.57-.07,1.55,.86,1.79,2.44,.73,5.08-1.32,3.32-3.16,6.22-5.62,8.39-2.16,1.9-4.37,3.61-6.57,5.4-5.33,4.32-10.65,8.63-15.98,12.99-.56,.46-1.07,1.13-1.59,1.74-1.68,1.99-1.71,3.57,.08,3.72,1.72,.15,3.52,0,5.34-.17,5.52-.53,10.27,.71,13.88,4.57,1.92,2.05,1.25,5.81-1.51,8.8-2.41,2.61-4.93,4.28-7.59,5.01-1.33,.36-2.71,1.02-4.02,1.32-2.85,.61-5.75,1.39-8.47,1.51-2.63,.11-5-.79-7.62-.8-5.64,0-11.38,.32-17.07,.47-4.19,.1-8.44,1.91-12.8,5.06-2.18,1.57-4.41,3.21-6.6,4.17-7.44,3.26-14.88,6.53-22.3,9.35"/></g></svg>