<?xml version="1.0" encoding="utf-8"?>
<!-- Generator: Adobe Illustrator 26.1.0, SVG Export Plug-In . SVG Version: 6.00 Build 0)  -->
<svg version="1.1" id="Layer_1" xmlns="http://www.w3.org/2000/svg" xmlns:xlink="http://www.w3.org/1999/xlink" x="0px" y="0px"
	 viewBox="0 0 20 20" style="enable-background:new 0 0 20 20;" xml:space="preserve">
<style type="text/css">
	.st0{fill:#FFFFFF;}
</style>
<path class="st0" d="M20,6h-2.8c-2-1.3-4.4-2-7.2-2S4.8,4.7,2.8,6H0c0.4,0.4,0.8,1.3,1,2c-0.6,0.9-1,1.9-1,3c0,2.8,2.2,5,5,5
	c1.3,0,2.5-0.5,3.4-1.4L10,17l1.6-2.4c0.9,0.9,2.1,1.4,3.4,1.4c2.8,0,5-2.2,5-5c0-1.1-0.4-2.1-1-3C19.2,7.4,19.6,6.4,20,6L20,6z
	 M5,14.4c-1.9,0-3.4-1.5-3.4-3.4S3.1,7.6,5,7.6S8.4,9.1,8.4,11S6.9,14.4,5,14.4z M10,11c0-2.4-1.7-4.4-4-4.9c1.2-0.4,2.5-0.6,4-0.6
	s2.8,0.2,4,0.6C11.7,6.6,10,8.6,10,11L10,11z M15,14.4c-1.9,0-3.4-1.5-3.4-3.4s1.5-3.4,3.4-3.4s3.4,1.5,3.4,3.4S16.9,14.4,15,14.4z
	 M5,8.9c-1.2,0-2.2,1-2.2,2.2s1,2.1,2.2,2.1s2.2-1,2.2-2.1S6.2,8.9,5,8.9z M5,11.7c-0.4,0-0.7-0.3-0.7-0.6c0-0.4,0.3-0.7,0.7-0.7
	s0.7,0.3,0.7,0.7C5.7,11.4,5.4,11.7,5,11.7L5,11.7z M15,8.9c-1.2,0-2.1,1-2.1,2.1s1,2.1,2.1,2.1s2.1-1,2.1-2.1S16.2,8.9,15,8.9z
	 M15,11.7c-0.4,0-0.6-0.3-0.6-0.6c0-0.4,0.3-0.7,0.6-0.7s0.6,0.3,0.6,0.7C15.6,11.4,15.4,11.7,15,11.7z"/>
</svg>
